<?xml version="1.0" standalone="no"?>
<!DOCTYPE svg PUBLIC "-//W3C//DTD SVG 20010904//EN"
 "http://www.w3.org/TR/2001/REC-SVG-20010904/DTD/svg10.dtd">
<svg version="1.0" xmlns="http://www.w3.org/2000/svg"
 width="788.000000pt" height="832.000000pt" viewBox="0 0 788.000000 832.000000"
 preserveAspectRatio="xMidYMid meet">

<g transform="translate(0.000000,832.000000) scale(0.100000,-0.100000)"
fill="#FFFFFF" stroke="none">
<path d="M990 4700 l0 -2970 2963 2 2962 3 3 2968 2 2967 -2965 0 -2965 0 0
-2970z m5728 3 l2 -2773 -2765 0 -2765 0 0 2775 0 2775 2763 -2 2762 -3 3
-2772z"/>
<path d="M2007 7023 c3 -10 9 -22 14 -28 4 -5 15 -37 24 -70 9 -33 21 -69 26
-80 5 -11 18 -65 29 -120 11 -55 24 -122 29 -150 35 -168 78 -622 101 -1050
11 -211 11 -1933 0 -2240 -15 -398 -38 -708 -56 -737 -3 -5 -14 -40 -25 -79
-11 -39 -27 -81 -35 -95 l-16 -24 1366 0 c1296 0 1366 1 1366 18 0 30 29 275
39 332 6 30 18 125 27 210 9 85 18 164 21 175 7 29 33 265 33 300 l0 29 -37
-35 c-164 -155 -426 -317 -628 -389 -160 -58 -220 -63 -635 -56 -206 4 -430 9
-496 12 l-121 7 -2 90 c-1 50 -4 94 -6 97 -28 45 -36 2233 -10 2750 25 510 35
672 45 740 5 36 17 121 25 190 9 69 22 146 30 173 l14 47 -564 0 c-533 0 -564
-1 -558 -17z"/>
<path d="M5005 7015 c-128 -33 -196 -66 -335 -162 -29 -20 -177 -168 -203
-204 -105 -141 -210 -377 -237 -534 -5 -33 -14 -80 -20 -105 -11 -55 -12 -338
-1 -400 25 -133 43 -209 66 -276 25 -71 83 -203 95 -214 3 -3 13 -21 23 -40
38 -75 140 -197 239 -286 93 -84 261 -167 396 -195 238 -51 458 -7 623 124 94
75 208 245 241 360 6 23 15 47 19 52 4 6 15 48 23 95 9 47 21 105 26 129 7 27
7 48 2 53 -14 14 -54 6 -62 -12 -5 -8 -22 -44 -40 -80 -57 -116 -138 -222
-211 -275 -133 -98 -291 -140 -409 -110 -82 20 -150 46 -150 55 0 4 -13 13
-28 19 -36 15 -149 130 -196 200 -152 225 -231 589 -191 876 30 212 97 369
204 476 76 75 136 103 234 107 92 5 153 -9 222 -51 57 -34 177 -153 200 -198
9 -16 19 -29 23 -29 5 0 14 -16 21 -35 7 -19 18 -40 25 -47 6 -7 19 -31 28
-53 9 -22 20 -40 24 -40 5 0 19 72 31 160 39 273 72 497 83 559 6 32 9 61 6
63 -2 2 -24 -5 -49 -16 -55 -25 -133 -27 -184 -6 -161 68 -373 83 -538 40z"/>
<path d="M4103 1199 c-154 -30 -244 -135 -243 -283 1 -115 100 -232 217 -256
56 -12 199 -9 234 5 14 5 52 94 44 103 -2 2 -20 -5 -42 -16 -89 -45 -174 -35
-235 26 -33 32 -41 49 -50 103 -15 87 2 167 43 209 28 27 37 30 95 30 39 0 77
-6 94 -15 l30 -16 0 50 0 49 -50 11 c-57 12 -77 12 -137 0z"/>
<path d="M996 1193 c-2 -2 3 -17 11 -34 12 -23 14 -70 11 -246 -2 -120 -7
-226 -12 -235 -8 -17 3 -18 157 -18 l166 0 10 38 c17 58 15 66 -11 48 -27 -19
-138 -22 -156 -4 -9 9 -12 69 -12 208 0 161 3 199 16 218 l15 22 -73 1 c-40 0
-83 2 -96 3 -12 2 -24 1 -26 -1z"/>
<path d="M1888 1192 l-68 -3 18 -27 c15 -23 17 -53 17 -232 0 -134 -4 -216
-12 -237 l-12 -33 66 0 c59 0 64 2 57 18 -13 26 -17 315 -5 307 9 -5 58 -67
126 -161 37 -51 86 -107 108 -124 22 -17 100 -50 117 -50 6 0 10 90 10 240 0
197 3 246 15 270 9 18 11 30 5 31 -48 3 -112 1 -117 -4 -3 -4 0 -14 8 -23 20
-24 27 -294 7 -293 -7 0 -42 41 -78 91 -36 50 -70 96 -75 102 -6 6 -28 35 -49
64 -21 29 -45 56 -54 60 -10 4 -47 6 -84 4z"/>
<path d="M3260 1190 c-8 -5 -29 -79 -30 -103 0 -4 13 -1 30 8 41 21 96 20 105
-2 12 -33 3 -366 -11 -400 l-13 -33 99 0 99 0 -15 28 c-11 21 -14 72 -14 225
l0 197 48 0 c26 0 53 -5 60 -12 16 -16 20 -10 27 47 l7 50 -192 0 c-106 0
-196 -2 -200 -5z"/>
<path d="M5898 1192 l-196 -2 -11 -51 c-6 -27 -11 -52 -11 -54 0 -2 12 3 28
11 15 7 46 14 70 14 l42 0 0 -200 c0 -168 -3 -205 -16 -225 l-16 -25 101 0
c94 0 101 1 92 18 -12 23 -14 60 -12 260 l1 172 44 0 c25 0 48 -4 51 -10 13
-22 23 -8 30 41 4 27 5 51 4 52 -2 1 -93 1 -201 -1z"/>
<path d="M1346 1158 c9 -18 20 -35 23 -38 3 -3 16 -25 28 -50 12 -25 38 -74
58 -110 33 -61 35 -71 35 -155 0 -59 -5 -100 -14 -117 l-15 -28 98 0 99 0 -15
43 c-10 28 -14 70 -11 127 3 80 7 92 56 190 30 57 60 119 67 137 l14 33 -59 0
-59 0 5 -32 c3 -23 -4 -49 -24 -88 -15 -30 -32 -55 -37 -55 -5 0 -29 39 -53
88 l-45 87 -84 0 -84 0 17 -32z"/>
<path d="M2428 1178 c17 -17 17 -489 0 -506 -9 -9 27 -12 164 -12 195 0 178
-6 193 68 l7 34 -31 -16 c-30 -16 -124 -22 -155 -10 -13 5 -16 23 -16 90 l0
84 43 0 c24 0 48 -5 55 -12 9 -9 12 -2 12 35 l0 47 -55 0 -55 0 0 71 0 72 70
-5 70 -5 0 38 0 39 -157 0 c-122 0 -154 -3 -145 -12z"/>
<path d="M2818 1140 c-13 -41 -14 -50 -3 -50 8 0 17 5 20 10 3 6 28 10 56 10
l49 0 0 -199 c0 -110 -4 -211 -10 -225 l-10 -26 101 0 c91 0 99 1 85 16 -14
13 -16 48 -16 225 l0 209 41 0 c22 0 49 -4 59 -10 15 -8 19 -4 29 35 6 24 11
46 11 49 0 3 -89 6 -198 6 l-198 0 -16 -50z"/>
<path d="M4541 1171 c10 -15 3 -44 -35 -157 -26 -76 -56 -167 -66 -202 -10
-35 -30 -83 -44 -108 l-25 -44 75 0 c70 0 74 1 59 16 -18 18 -14 55 13 111
l16 33 81 0 80 0 18 -49 c22 -62 22 -87 0 -100 -13 -8 14 -10 96 -11 108 0
113 1 99 18 -23 26 -60 113 -114 272 -8 25 -21 59 -28 75 -7 17 -24 60 -36 98
l-24 67 -88 0 c-83 0 -88 -1 -77 -19z m103 -205 c13 -36 20 -68 18 -71 -7 -7
-97 -6 -104 0 -3 3 6 39 20 81 16 46 29 71 35 65 5 -5 19 -39 31 -75z"/>
<path d="M4968 1179 c17 -18 17 -490 0 -507 -9 -9 11 -12 89 -12 l102 0 -15
28 c-11 21 -14 73 -14 231 l0 203 27 -7 c72 -18 94 -129 37 -190 -31 -33 -30
-35 7 -35 53 0 126 38 150 79 42 69 21 167 -44 203 -32 18 -357 25 -339 7z"/>
<path d="M5458 1178 c9 -9 12 -79 12 -255 0 -220 -2 -243 -17 -252 -13 -8 10
-10 85 -11 98 0 102 1 92 19 -6 12 -10 109 -10 246 0 137 4 234 10 246 10 18
7 19 -87 19 -75 0 -94 -3 -85 -12z"/>
<path d="M6292 1170 c11 -17 6 -38 -26 -137 -22 -65 -45 -131 -52 -148 -7 -16
-20 -55 -29 -85 -10 -30 -28 -74 -40 -97 l-24 -43 75 0 c70 0 74 1 59 16 -18
18 -14 55 13 111 l16 33 80 0 81 0 18 -40 c20 -47 22 -91 5 -108 -9 -9 51 -12
269 -12 155 0 284 3 286 8 3 4 8 27 12 51 l7 44 -23 -17 c-29 -20 -144 -23
-156 -3 -10 17 -3 408 8 430 9 16 2 17 -92 17 -98 0 -101 -1 -86 -18 15 -16
17 -49 17 -249 0 -192 -2 -233 -15 -243 -22 -18 -44 -5 -61 37 -8 21 -21 52
-29 68 -7 17 -16 41 -20 55 -4 14 -13 39 -21 55 -7 17 -23 57 -34 90 -12 33
-30 87 -41 120 -12 33 -26 66 -31 73 -7 8 -39 12 -94 12 -81 0 -84 -1 -72 -20z
m94 -177 c9 -32 21 -63 26 -70 16 -20 -1 -33 -42 -33 -54 0 -71 8 -60 28 5 10
17 43 26 75 8 31 19 57 24 57 5 0 17 -26 26 -57z"/>
</g>
</svg>
