<?xml version="1.0" standalone="no"?>
<!DOCTYPE svg PUBLIC "-//W3C//DTD SVG 20010904//EN"
 "http://www.w3.org/TR/2001/REC-SVG-20010904/DTD/svg10.dtd">
<svg version="1.0" xmlns="http://www.w3.org/2000/svg"
 width="1180.000000pt" height="1180.000000pt" viewBox="0 0 1180.000000 1180.000000"
 preserveAspectRatio="xMidYMid meet">

<g transform="translate(0.000000,1180.000000) scale(0.100000,-0.100000)"
fill="#FFFFFF" stroke="none">
<path d="M5775 10390 c-205 -15 -452 -59 -644 -116 -1212 -356 -2086 -1410
-2211 -2664 -15 -146 -11 -532 6 -665 118 -924 598 -1706 1359 -2214 1113
-744 2593 -682 3640 154 119 95 331 299 425 410 320 379 532 792 649 1267 57
228 81 405 88 648 9 309 -15 540 -88 836 -131 540 -395 1013 -787 1416 -498
511 -1132 825 -1842 913 -153 19 -446 26 -595 15z m660 -1254 c377 -67 659
-194 945 -426 215 -174 394 -436 484 -710 160 -486 87 -954 -220 -1411 -96
-143 -172 -237 -294 -363 -365 -380 -871 -669 -1308 -747 -157 -29 -425 -31
-562 -6 -435 81 -787 341 -1032 762 -139 238 -237 526 -285 835 -27 177 -25
520 5 656 93 431 345 794 747 1075 240 168 581 299 895 345 121 17 509 11 625
-10z"/>
<path d="M5905 8959 c-174 -20 -163 -24 62 -25 257 0 383 -15 598 -69 268 -67
504 -177 683 -317 35 -27 65 -48 68 -46 5 5 -121 110 -191 158 -46 33 -100 65
-195 117 -116 64 -333 133 -510 164 -133 23 -396 32 -515 18z"/>
<path d="M5790 8730 c-529 -48 -944 -307 -1150 -719 -44 -89 -94 -247 -116
-366 -22 -120 -24 -418 -5 -565 51 -390 187 -689 409 -901 154 -147 320 -233
543 -280 84 -18 138 -22 279 -23 303 -1 540 56 835 199 527 255 909 707 990
1169 18 103 20 271 4 382 -73 524 -489 917 -1119 1058 -63 14 -151 30 -195 35
-121 15 -368 21 -475 11z m755 -683 c99 -46 132 -75 202 -176 97 -140 115
-186 121 -300 5 -117 -8 -185 -54 -281 -46 -96 -135 -185 -236 -234 -125 -61
-167 -68 -431 -73 -233 -5 -237 -6 -242 -27 -3 -11 -23 -127 -45 -256 -22
-129 -43 -245 -45 -257 -5 -23 -7 -23 -176 -23 -158 0 -170 1 -165 18 3 9 8
34 12 55 l6 37 -41 0 -41 0 6 43 c3 23 18 116 34 207 77 441 103 586 125 710
13 74 40 227 60 340 20 113 38 215 41 228 l5 23 402 -3 402 -3 60 -28z"/>
<path d="M6036 7698 c-5 -15 -56 -315 -56 -329 0 -15 251 -11 304 5 117 35
179 113 180 224 1 65 0 66 -34 86 -31 19 -55 21 -212 24 -143 3 -179 1 -182
-10z"/>
<path d="M5300 5724 c63 -29 221 -64 332 -74 120 -10 266 -1 393 25 87 18 117
32 45 21 -250 -39 -473 -34 -680 15 -47 11 -94 22 -105 24 -11 3 -4 -2 15 -11z"/>
<path d="M6128 5703 c6 -2 18 -2 25 0 6 3 1 5 -13 5 -14 0 -19 -2 -12 -5z"/>
<path d="M305 3378 c-2 -13 -21 -115 -40 -228 -20 -113 -80 -452 -134 -755
-54 -302 -96 -553 -94 -557 4 -7 283 -12 283 -5 0 1 23 130 50 287 27 157 50
288 50 291 0 4 114 9 253 11 226 5 259 7 322 27 205 66 345 205 385 384 16 75
14 215 -5 272 -50 148 -174 254 -334 285 -30 5 -204 10 -392 10 l-339 0 -5
-22z m634 -229 c137 -29 200 -148 156 -295 -30 -101 -111 -162 -246 -183 -90
-15 -379 -14 -379 0 0 7 15 100 34 208 19 108 37 215 41 239 l7 42 168 0 c93
0 192 -5 219 -11z"/>
<path d="M1870 2969 c-69 -12 -170 -59 -227 -105 -55 -45 -117 -137 -148 -218
-21 -56 -74 -322 -89 -451 -18 -154 54 -290 188 -352 55 -25 71 -28 171 -28
137 0 194 21 334 122 l24 17 -7 -39 c-4 -22 -10 -50 -13 -62 -5 -23 -5 -23
126 -23 85 0 131 4 131 11 0 5 36 213 81 462 44 249 88 498 98 555 l18 102
-127 0 -127 0 -12 -61 -12 -61 -37 40 c-79 84 -213 117 -372 91z m247 -240
c53 -26 90 -69 99 -116 8 -45 -48 -388 -71 -433 -47 -90 -141 -143 -255 -144
-131 0 -212 63 -212 168 0 66 61 374 81 415 35 68 97 113 186 135 36 8 129 -5
172 -25z"/>
<path d="M3311 2964 c-66 -18 -138 -56 -193 -103 l-41 -35 7 49 c4 28 9 58 12
68 5 16 -6 17 -124 17 l-130 0 -11 -67 c-7 -38 -36 -205 -66 -373 -134 -753
-195 -1098 -195 -1104 0 -3 58 -6 129 -6 115 0 130 2 135 18 3 9 23 123 46
252 22 129 43 243 46 252 4 14 12 9 41 -23 20 -22 60 -53 87 -67 46 -24 61
-27 156 -27 83 0 119 5 172 23 158 55 273 168 328 325 26 72 81 395 82 472 1
126 -52 231 -142 286 -91 56 -227 73 -339 43z m116 -236 c54 -25 85 -68 91
-127 5 -60 -52 -372 -79 -428 -61 -125 -245 -181 -371 -111 -60 33 -88 79 -88
142 0 62 54 355 71 388 56 106 180 174 294 161 22 -3 59 -14 82 -25z"/>
<path d="M4465 2973 c-185 -24 -366 -151 -448 -313 -82 -162 -127 -512 -81
-622 46 -110 160 -194 299 -219 88 -16 283 -6 383 20 86 22 189 67 231 99 l23
19 -41 88 c-27 57 -45 85 -53 82 -167 -73 -276 -101 -377 -95 -161 10 -229 90
-207 242 l7 46 363 0 363 0 18 118 c23 152 18 289 -13 349 -72 139 -260 213
-467 186z m154 -242 c64 -32 96 -105 82 -186 l-6 -40 -229 -3 -228 -3 7 37
c31 167 226 268 374 195z"/>
<path d="M5811 2964 c-81 -22 -186 -82 -247 -142 -30 -29 -54 -49 -54 -45 0 5
7 46 15 93 8 47 15 86 15 88 0 1 -58 2 -128 2 l-128 0 -33 -187 c-18 -104 -62
-352 -97 -552 -35 -200 -64 -370 -64 -378 0 -10 28 -13 130 -13 72 0 130 1
130 3 0 2 25 145 55 318 62 348 80 404 155 479 23 23 72 56 108 73 63 30 74
32 180 32 105 0 113 1 117 20 12 56 35 190 35 206 0 17 -8 19 -67 18 -38 0
-92 -7 -122 -15z"/>
<path d="M6425 2970 c-67 -14 -147 -48 -198 -86 -105 -77 -160 -227 -127 -346
27 -97 115 -161 305 -224 206 -69 245 -94 245 -159 0 -43 -32 -89 -75 -110
-57 -26 -187 -32 -260 -10 -75 21 -125 47 -170 86 -35 31 -36 31 -58 13 -64
-53 -137 -130 -137 -146 0 -36 130 -119 240 -152 84 -26 258 -32 360 -12 228
43 351 170 354 366 1 65 -3 81 -26 122 -49 82 -134 132 -353 208 -192 66 -212
84 -176 164 49 112 259 124 416 25 l48 -30 78 77 79 78 -26 27 c-37 39 -130
86 -205 104 -68 16 -245 19 -314 5z"/>
<path d="M7747 2970 c-60 -15 -142 -58 -199 -102 l-51 -41 6 29 c3 16 8 46 12
67 l7 37 -128 0 -129 0 -134 -757 c-74 -417 -136 -766 -139 -776 -4 -16 5 -17
129 -15 l133 3 42 235 c24 129 46 250 49 269 l6 33 36 -41 c53 -63 121 -94
218 -99 240 -12 449 129 531 360 27 77 77 382 77 470 0 78 -3 94 -32 152 -58
118 -155 175 -311 182 -47 2 -102 -1 -123 -6z m102 -243 c52 -25 79 -58 90
-110 11 -48 -48 -386 -77 -444 -99 -193 -438 -186 -459 10 -6 54 43 339 68
397 64 147 238 214 378 147z"/>
<path d="M8783 2966 c-138 -32 -259 -126 -326 -253 -42 -80 -57 -136 -92 -343
-36 -203 -33 -310 10 -388 35 -65 81 -106 155 -141 49 -23 67 -26 165 -26 128
1 185 18 292 92 l66 45 -8 -49 c-4 -26 -8 -52 -8 -58 -1 -6 47 -11 125 -13
l126 -3 6 28 c3 15 24 134 46 263 36 200 129 725 145 813 l5 27 -129 0 -129 0
-7 -42 c-12 -81 -12 -81 -59 -34 -79 80 -241 114 -383 82z m256 -232 c69 -29
111 -86 111 -151 0 -21 -13 -113 -29 -205 -31 -183 -53 -236 -114 -282 -86
-66 -213 -81 -301 -36 -102 51 -112 100 -67 344 17 93 40 188 51 211 60 123
214 176 349 119z"/>
<path d="M10115 2973 c-215 -29 -389 -178 -465 -399 -33 -96 -63 -272 -64
-379 0 -88 3 -107 26 -156 70 -152 218 -229 439 -229 101 0 182 11 264 37 77
23 185 75 185 87 0 11 -63 167 -75 187 -3 4 -30 -3 -61 -17 -154 -68 -313 -86
-399 -44 -52 25 -91 76 -99 130 -6 39 18 232 39 328 36 156 122 233 262 234
126 1 210 -77 200 -184 l-4 -48 122 0 c142 0 135 -6 135 116 0 92 -22 152 -77
214 -89 99 -254 146 -428 123z"/>
<path d="M11217 2965 c-184 -37 -338 -157 -417 -327 -55 -118 -105 -416 -88
-531 19 -139 127 -244 290 -282 88 -21 253 -19 363 4 102 21 225 69 270 105
l30 24 -40 84 c-22 45 -41 85 -42 87 -2 2 -33 -10 -70 -27 -96 -43 -175 -63
-268 -69 -100 -7 -155 8 -205 53 -50 46 -64 88 -55 170 l7 64 362 0 363 0 19
103 c10 57 18 146 18 202 0 88 -3 107 -27 157 -76 156 -278 229 -510 183z
m180 -226 c71 -22 117 -117 96 -199 l-9 -35 -225 0 -224 0 3 29 c2 16 12 48
24 70 62 125 195 178 335 135z"/>
</g>
</svg>
