<?xml version="1.0" standalone="no"?>
<!DOCTYPE svg PUBLIC "-//W3C//DTD SVG 20010904//EN"
 "http://www.w3.org/TR/2001/REC-SVG-20010904/DTD/svg10.dtd">
<svg version="1.0" xmlns="http://www.w3.org/2000/svg"
 width="353.000000pt" height="267.000000pt" viewBox="0 0 353.000000 267.000000"
 preserveAspectRatio="xMidYMid meet">

<g transform="translate(0.000000,267.000000) scale(0.100000,-0.100000)"
fill="#000000" stroke="none">
<path d="M1583 2593 c-14 -16 -46 -64 -70 -108 -60 -107 -115 -204 -273 -480
-91 -158 -100 -177 -100 -200 0 -26 10 -39 37 -54 31 -16 61 -14 122 10 31 12
58 16 63 11 5 -5 7 -215 6 -483 l-3 -474 -26 -55 c-36 -78 -114 -154 -196
-193 -62 -29 -77 -32 -163 -32 -86 0 -101 3 -162 32 -86 40 -152 102 -191 178
l-32 60 -3 478 -3 477 -262 0 -262 0 6 -507 c5 -416 9 -517 21 -558 122 -396
463 -647 883 -649 182 -1 331 38 471 123 42 25 86 51 98 58 35 20 137 124 184
188 54 74 93 150 129 252 l27 78 4 510 c2 281 7 514 11 518 4 4 31 -1 60 -13
69 -27 106 -26 136 5 32 31 31 48 -3 110 -130 231 -180 319 -213 375 -21 36
-50 88 -65 115 -61 115 -138 237 -155 245 -29 16 -49 12 -76 -17z"/>
<path d="M1870 2616 c0 -4 55 -103 174 -313 l98 -172 256 -3 c245 -3 260 -5
316 -28 78 -32 167 -114 203 -188 25 -50 28 -68 28 -152 0 -112 -18 -161 -86
-235 -51 -56 -109 -91 -190 -116 -53 -17 -94 -19 -332 -19 l-272 0 2 -242 2
-243 303 0 c252 1 317 4 386 19 345 74 607 318 693 647 30 115 30 263 0 378
-95 362 -387 610 -781 661 -69 9 -800 15 -800 6z"/>
</g>
</svg>
