<?xml version="1.0" standalone="no"?>
<!DOCTYPE svg PUBLIC "-//W3C//DTD SVG 20010904//EN"
 "http://www.w3.org/TR/2001/REC-SVG-20010904/DTD/svg10.dtd">
<svg version="1.0" xmlns="http://www.w3.org/2000/svg"
 width="1277.000000pt" height="190.000000pt" viewBox="0 0 1277.000000 190.000000"
 preserveAspectRatio="xMidYMid meet">

<g transform="translate(0.000000,190.000000) scale(0.100000,-0.100000)"
fill="#000000" stroke="none">
<path d="M1078 1639 c-59 -9 -161 -33 -202 -49 l-24 -9 28 -76 c16 -43 31 -79
33 -82 3 -2 38 5 79 16 41 10 99 22 129 26 l54 7 -3 76 c-2 43 -5 83 -7 90 -5
13 -5 13 -87 1z"/>
<path d="M1316 1638 c-3 -7 -6 -47 -9 -89 l-4 -76 79 -12 c43 -7 97 -19 120
-27 22 -8 46 -14 53 -14 12 0 65 126 65 154 0 14 -115 49 -200 61 -25 3 -57 8
-73 11 -17 4 -29 1 -31 -8z"/>
<path d="M3050 1475 l0 -75 205 -2 205 -3 -216 -380 c-118 -209 -229 -404
-245 -432 l-30 -53 365 0 366 0 0 70 0 70 -240 2 -240 3 241 425 c133 234 244
431 246 437 4 10 -65 13 -326 13 l-331 0 0 -75z"/>
<path d="M12470 1040 l0 -510 70 0 70 0 0 510 0 510 -70 0 -70 0 0 -510z"/>
<path d="M10946 1504 c-83 -84 41 -220 127 -140 33 31 43 68 27 107 -27 64
-106 81 -154 33z"/>
<path d="M624 1460 c-49 -33 -107 -75 -129 -95 l-40 -34 60 -61 c33 -33 63
-60 68 -60 5 0 30 18 55 41 26 22 73 57 104 76 l58 36 -42 76 c-22 42 -42 77
-43 79 -2 2 -42 -24 -91 -58z"/>
<path d="M1723 1441 l-43 -78 59 -37 c32 -19 81 -56 108 -80 l50 -45 64 65 64
65 -35 30 c-58 50 -132 104 -180 132 l-45 26 -42 -78z"/>
<path d="M6200 1320 l0 -80 -70 0 -70 0 0 -70 0 -70 70 0 70 0 0 -285 0 -285
70 0 70 0 2 283 3 282 73 3 72 3 0 69 0 70 -75 0 -75 0 0 80 0 80 -70 0 -70 0
0 -80z"/>
<path d="M11330 1320 l0 -80 -65 0 -65 0 0 -70 0 -70 65 0 65 0 0 -285 0 -285
75 0 75 0 0 285 0 285 75 0 75 0 0 70 0 70 -75 0 -75 0 0 80 0 80 -75 0 -75 0
0 -80z"/>
<path d="M319 1164 c-45 -65 -120 -217 -111 -226 4 -3 41 -20 82 -36 l75 -30
31 67 c17 36 47 89 66 118 l36 52 -60 46 c-33 25 -66 49 -73 51 -8 3 -26 -14
-46 -42z"/>
<path d="M2048 1159 l-66 -50 35 -52 c20 -29 50 -82 68 -118 l32 -67 79 31
c43 16 80 31 82 32 13 11 -138 275 -156 275 -4 0 -38 -23 -74 -51z"/>
<path d="M4903 1175 c-105 -29 -175 -95 -209 -197 -12 -38 -15 -74 -12 -151 5
-122 30 -180 103 -245 64 -56 127 -75 229 -70 105 5 171 39 233 118 24 30 43
57 43 60 0 11 -123 71 -129 63 -4 -4 -20 -25 -35 -47 -73 -98 -226 -83 -277
28 -36 80 -47 76 205 76 138 0 227 4 231 10 10 16 -14 159 -33 204 -53 119
-213 189 -349 151z m157 -140 c35 -18 70 -61 70 -86 0 -18 -10 -19 -145 -19
-80 0 -145 2 -145 5 0 27 58 96 90 108 30 11 102 7 130 -8z"/>
<path d="M5683 1176 c-22 -8 -55 -23 -72 -35 l-31 -22 0 25 c0 26 -1 26 -75
26 l-75 0 0 -320 0 -320 75 0 75 0 0 205 c0 229 9 274 61 300 42 22 121 19
147 -5 35 -32 42 -84 42 -297 l0 -203 76 0 76 0 -4 243 c-3 221 -5 246 -24
287 -27 57 -68 95 -123 115 -52 18 -91 18 -148 1z"/>
<path d="M7548 1181 c-15 -5 -43 -21 -62 -36 l-36 -27 0 26 c0 26 -1 26 -75
26 l-75 0 0 -320 0 -320 75 0 75 0 0 186 c0 211 9 263 52 299 37 31 99 33 145
5 l33 -20 35 71 36 70 -45 19 c-53 24 -121 33 -158 21z"/>
<path d="M7962 1172 c-74 -27 -120 -68 -161 -143 -35 -63 -36 -66 -36 -179 0
-106 2 -120 28 -172 34 -69 101 -131 164 -152 55 -19 176 -21 224 -4 57 19
107 56 149 109 22 28 40 54 40 59 0 8 -120 74 -124 68 -52 -82 -102 -118 -164
-118 -82 0 -152 58 -168 139 l-6 31 232 0 233 0 -7 77 c-7 83 -35 157 -80 210
-66 78 -217 113 -324 75z m214 -165 c19 -20 34 -46 34 -57 0 -19 -6 -20 -145
-20 -80 0 -145 3 -145 8 0 19 43 74 72 93 26 16 45 19 92 16 53 -3 62 -7 92
-40z"/>
<path d="M9019 1177 c-100 -28 -191 -105 -232 -196 -17 -36 -21 -66 -22 -136
0 -79 4 -97 28 -147 35 -72 110 -140 185 -168 47 -18 72 -21 142 -17 49 2 103
12 128 22 l42 17 0 94 0 94 -55 -44 c-59 -48 -102 -62 -167 -53 -46 6 -104 48
-131 95 -42 71 -30 185 26 249 38 44 82 63 141 63 60 0 88 -12 141 -61 l45
-42 0 97 0 97 -43 19 c-57 26 -169 34 -228 17z"/>
<path d="M9603 1176 c-140 -44 -218 -164 -218 -336 1 -71 5 -95 28 -145 56
-120 149 -185 269 -185 56 0 76 5 132 34 l66 35 0 -25 c0 -23 2 -24 75 -24
l75 0 0 320 0 320 -75 0 -75 0 0 -36 0 -36 -35 31 c-37 32 -119 61 -169 60
-17 0 -50 -6 -73 -13z m185 -140 c142 -74 135 -330 -11 -385 -37 -14 -103 -14
-130 0 -78 40 -125 137 -112 227 9 65 48 128 93 152 44 23 122 26 160 6z"/>
<path d="M10433 1176 c-23 -7 -54 -24 -70 -36 l-28 -22 -3 26 c-3 25 -5 26
-78 26 l-74 0 2 -487 3 -488 73 -3 72 -3 0 180 0 179 50 -19 c140 -53 314 2
395 124 117 177 57 406 -129 497 -73 36 -153 46 -213 26z m110 -147 c47 -13
106 -63 123 -106 31 -73 7 -176 -51 -221 -93 -73 -234 -43 -284 60 -51 106 -4
224 105 263 48 17 59 18 107 4z"/>
<path d="M11895 1181 c-89 -22 -159 -84 -204 -181 -22 -47 -26 -69 -26 -150 0
-83 4 -103 29 -157 34 -75 102 -142 169 -168 85 -32 210 -11 275 48 l22 20 0
-31 0 -32 75 0 75 0 0 320 0 320 -75 0 -75 0 0 -35 0 -36 -39 31 c-62 50 -149
70 -226 51z m168 -145 c41 -17 81 -64 97 -112 20 -60 7 -159 -26 -207 -77
-108 -225 -102 -291 10 -24 40 -28 59 -28 119 0 61 4 77 30 119 17 26 46 56
65 66 41 22 108 24 153 5z"/>
<path d="M1112 1171 c-18 -5 -35 -10 -36 -12 -2 -2 5 -40 17 -84 l20 -80 126
1 125 2 22 80 c20 74 21 81 6 88 -25 10 -242 14 -280 5z"/>
<path d="M4066 993 c47 -98 120 -251 162 -340 42 -90 79 -163 82 -163 4 0 313
631 328 671 2 5 -34 9 -80 9 l-83 0 -80 -179 c-44 -99 -83 -176 -86 -173 -4 4
-42 85 -85 180 l-78 172 -82 0 -83 0 85 -177z"/>
<path d="M6600 953 c0 -120 5 -235 10 -255 15 -53 68 -118 125 -153 44 -27 56
-30 135 -30 79 0 91 3 135 30 57 35 110 100 125 153 5 20 10 135 10 255 l0
217 -69 0 -70 0 -3 -212 c-4 -234 -8 -254 -63 -288 -58 -36 -132 -20 -171 37
-17 25 -19 52 -22 246 l-3 217 -70 0 -69 0 0 -217z"/>
<path d="M10940 850 l0 -320 75 0 75 0 0 320 0 320 -75 0 -75 0 0 -320z"/>
<path d="M869 1069 c-24 -17 -61 -48 -82 -68 -40 -38 -112 -130 -106 -135 17
-14 138 -86 145 -86 5 0 22 18 37 41 16 22 53 58 83 81 30 22 54 43 54 47 1
11 -75 151 -81 151 -3 0 -26 -14 -50 -31z"/>
<path d="M1513 1022 l-41 -77 49 -34 c28 -19 67 -56 87 -82 20 -27 40 -48 44
-49 10 0 147 84 148 91 1 17 -119 144 -173 183 -36 25 -66 46 -68 46 -2 0 -23
-35 -46 -78z"/>
<path d="M141 727 c-6 -35 -11 -94 -11 -130 l0 -67 84 0 83 0 7 78 c3 42 10
92 15 110 9 31 9 32 -32 42 -23 6 -58 15 -77 21 -55 14 -57 13 -69 -54z"/>
<path d="M2260 778 c-19 -5 -51 -13 -71 -19 -36 -9 -37 -10 -29 -46 5 -20 12
-69 15 -110 l7 -73 90 0 89 0 -6 53 c-24 219 -23 216 -95 195z"/>
<path d="M601 673 c-6 -26 -13 -69 -17 -95 l-6 -48 89 0 90 0 6 48 c4 26 9 56
12 67 5 18 -3 24 -67 44 -40 13 -78 26 -84 28 -7 2 -16 -15 -23 -44z"/>
<path d="M1777 694 c-74 -24 -79 -27 -73 -50 4 -13 9 -44 13 -69 l6 -45 89 0
90 0 -6 48 c-10 71 -27 142 -34 141 -4 0 -42 -12 -85 -25z"/>
</g>
</svg>
